<svg width="120" height="120" viewBox="0 0 120 120" fill="none" xmlns="http://www.w3.org/2000/svg">
<path d="M45.0616 36.6662C31.3223 23.2982 40.7863 0 59.9558 0C79.1253 0 88.5894 23.2982 74.8501 36.6662L59.9558 51.1579L45.0616 36.6662Z" fill="#CBEA7B"/>
<path d="M45.1475 83.3338C31.4082 96.7018 40.8723 120 60.0418 120C79.2113 120 88.6753 96.7018 74.936 83.3338L60.0418 68.8421L45.1475 83.3338Z" fill="#CBEA7B"/>
<path d="M36.6662 74.9365C23.2982 88.6758 0 79.2117 0 60.0422C0 40.8727 23.2982 31.4087 36.6662 45.1479L51.1579 60.0422L36.6662 74.9365Z" fill="#CBEA7B"/>
<path d="M83.3338 74.8505C96.7018 88.5898 120 79.1258 120 59.9563C120 40.7868 96.7018 31.3227 83.3338 45.062L68.8421 59.9563L83.3338 74.8505Z" fill="#CBEA7B"/>
</svg>
