<svg width="127" height="111" viewBox="0 0 127 111" fill="none" xmlns="http://www.w3.org/2000/svg">
<path d="M61.5861 50.1104C42.8091 31.8409 55.7433 0 81.9416 0C108.14 0 121.074 31.8409 102.297 50.1105L81.9416 69.9158L61.5861 50.1104Z" fill="#EEF8D3"/>
<path d="M61.7033 113.89C42.9263 132.159 55.8604 164 82.0588 164C108.257 164 121.191 132.159 102.414 113.89L82.0588 94.0842L61.7033 113.89Z" fill="#EEF8D3"/>
<path d="M50.1104 102.413C31.8409 121.19 0 108.256 0 82.0579C0 55.8596 31.8409 42.9254 50.1105 61.7024L69.9158 82.0579L50.1104 102.413Z" fill="#EEF8D3"/>
<path d="M113.89 102.295C132.159 121.072 164 108.138 164 81.9398C164 55.7414 132.159 42.8072 113.89 61.5843L94.0842 81.9398L113.89 102.295Z" fill="#EEF8D3"/>
</svg>
