<svg width="14" height="17" viewBox="0 0 14 17" fill="none" xmlns="http://www.w3.org/2000/svg">
<path fill-rule="evenodd" clip-rule="evenodd" d="M6.8 17C6.09584 17 5.525 16.4292 5.525 15.725L5.525 4.44054L2.19406 8.10871C1.706 8.6163 0.898872 8.63212 0.391287 8.14406C-0.116296 7.656 -0.132122 6.84887 0.355939 6.34129L5.88094 0.391286C6.12132 0.141287 6.45318 1.10243e-08 6.8 0C7.14682 -1.10243e-08 7.47868 0.141287 7.71906 0.391286L13.2441 6.34129C13.7321 6.84887 13.7163 7.656 13.2087 8.14406C12.7011 8.63212 11.894 8.6163 11.4059 8.10871L8.075 4.44054V15.725C8.075 16.4292 7.50417 17 6.8 17Z" fill="white"/>
</svg>
