<svg width="24" height="24" viewBox="0 0 24 24" fill="none" xmlns="http://www.w3.org/2000/svg">
<path d="M1.71436 11.9599C1.71436 13.6374 2.12619 15.2144 2.86949 16.6206L4.60721 14.8829C4.83824 14.6519 5.1898 14.6519 5.42083 14.8829C5.65186 15.1139 5.6619 15.4655 5.42083 15.7065L3.47217 17.6552C3.72328 18.0068 3.9744 18.3482 4.26569 18.6596L18.6697 4.26569C18.3482 3.9744 17.9967 3.71324 17.6552 3.47217L15.6865 5.44092C15.4554 5.67195 15.0938 5.6619 14.8628 5.44092C14.6318 5.20989 14.6318 4.85833 14.8628 4.61726L16.6106 2.87954C15.2144 2.12619 13.6273 1.71436 11.9498 1.71436C6.35498 1.71436 1.71436 6.35498 1.71436 11.9599ZM14.1496 6.97774L12.7735 8.35386C12.5425 8.58489 12.1808 8.57485 11.9498 8.35386C11.7289 8.12284 11.7188 7.75119 11.9498 7.53021L13.336 6.15409C13.567 5.93311 13.9286 5.92306 14.1496 6.15409C14.3806 6.38512 14.3806 6.74672 14.1496 6.97774ZM11.2467 9.89069L9.86056 11.2668C9.63958 11.4878 9.27797 11.4878 9.04695 11.2668C8.81592 11.0358 8.81592 10.6742 9.04695 10.4432L10.4231 9.06703C10.6541 8.836 11.0157 8.836 11.2467 9.06703C11.4677 9.28802 11.4777 9.66971 11.2467 9.89069ZM8.33378 12.7936L6.96771 14.1697C6.72664 14.4008 6.37507 14.3907 6.14404 14.1697C5.91302 13.9387 5.91302 13.5872 6.14404 13.3561L7.51012 11.9699C7.74114 11.7389 8.10274 11.7489 8.33378 11.9699C8.55476 12.201 8.57485 12.5625 8.33378 12.7936ZM11.9599 22.2054C17.5648 22.2054 22.2054 17.5548 22.2054 11.9599C22.2054 10.2925 21.7936 8.70543 21.0503 7.30922L19.3125 9.0369C19.0715 9.27797 18.73 9.26793 18.4989 9.0369C18.278 8.80588 18.2579 8.45431 18.4989 8.21324L20.4476 6.27462C20.2065 5.92306 19.9554 5.58154 19.6641 5.27016L5.26012 19.6641C5.58154 19.9454 5.92306 20.2065 6.26458 20.4476L8.23333 18.4789C8.4744 18.2277 8.82597 18.2479 9.05699 18.4789C9.28802 18.7099 9.29806 19.0514 9.05699 19.2925L7.29917 21.0503C8.70543 21.7836 10.2824 22.2054 11.9599 22.2054ZM17.7758 10.5637L16.4096 11.9498C16.1786 12.1808 15.817 12.1708 15.586 11.9498C15.365 11.7088 15.355 11.3572 15.586 11.1262L16.9622 9.75007C17.1932 9.51904 17.5448 9.51904 17.7758 9.75007C18.0168 9.97105 18.0068 10.3327 17.7758 10.5637ZM14.8729 13.4767L13.4967 14.8427C13.2657 15.0838 12.9041 15.0838 12.6731 14.8427C12.452 14.6217 12.442 14.2501 12.6731 14.0191L14.0592 12.653C14.2802 12.432 14.6519 12.432 14.8729 12.653C15.1039 12.884 15.1039 13.2356 14.8729 13.4767ZM11.9699 16.3796L10.5838 17.7556C10.3527 17.9767 10.0012 17.9867 9.77016 17.7556C9.53914 17.5246 9.53914 17.163 9.77016 16.932L11.1463 15.5558C11.3773 15.3248 11.7389 15.3449 11.9699 15.5558C12.191 15.797 12.201 16.1586 11.9699 16.3796Z" fill="#CBEA7B"/>
</svg>
