<svg width="34" height="34" viewBox="0 0 34 34" fill="none" xmlns="http://www.w3.org/2000/svg">
<path d="M3 28V21.7055C3 19.8953 3.33047 18.0131 3.99142 16.0589C4.67239 14.0842 5.59371 12.2225 6.75536 10.4741C7.93705 8.70501 9.25894 7.21365 10.721 6L15.7682 9.36325C14.5866 11.194 13.5951 13.1071 12.794 15.1024C12.0129 17.0771 11.6323 19.2576 11.6524 21.6438V28H3ZM18.2318 28V21.7055C18.2318 19.8953 18.5622 18.0131 19.2232 16.0589C19.9041 14.0842 20.8255 12.2225 21.9871 10.4741C23.1688 8.70501 24.4907 7.21365 25.9528 6L31 9.36325C29.8183 11.194 28.8269 13.1071 28.0258 15.1024C27.2446 17.0771 26.8641 19.2576 26.8841 21.6438V28H18.2318Z" fill="#356554"/>
</svg>
